<mxfile host="app.diagrams.net" agent="Mozilla/5.0 (Windows NT 10.0; Win64; x64) AppleWebKit/537.36 (KHTML, like Gecko) Chrome/130.0.0.0 Safari/537.36" version="24.8.2">
  <diagram name="Page-1" id="srzAFA5wGK1bmv_tZhzp">
    <mxGraphModel dx="1527" dy="367" grid="1" gridSize="10" guides="1" tooltips="1" connect="1" arrows="1" fold="1" page="1" pageScale="1" pageWidth="850" pageHeight="1100" math="0" shadow="0">
      <root>
        <mxCell id="0" />
        <mxCell id="1" parent="0" />
        <mxCell id="s5zvkutuZv6NkAI-lQkc-19" style="edgeStyle=orthogonalEdgeStyle;rounded=0;orthogonalLoop=1;jettySize=auto;html=1;entryX=0;entryY=0.5;entryDx=0;entryDy=0;" parent="1" source="s5zvkutuZv6NkAI-lQkc-2" target="s5zvkutuZv6NkAI-lQkc-4" edge="1">
          <mxGeometry relative="1" as="geometry" />
        </mxCell>
        <mxCell id="s5zvkutuZv6NkAI-lQkc-2" value="&lt;div&gt;Client&lt;br&gt;&lt;/div&gt;" style="rounded=0;whiteSpace=wrap;html=1;align=left;verticalAlign=top;" parent="1" vertex="1">
          <mxGeometry x="-400" y="80" width="640" height="410" as="geometry" />
        </mxCell>
        <mxCell id="s5zvkutuZv6NkAI-lQkc-18" style="edgeStyle=orthogonalEdgeStyle;rounded=0;orthogonalLoop=1;jettySize=auto;html=1;entryX=1;entryY=0.5;entryDx=0;entryDy=0;" parent="1" source="s5zvkutuZv6NkAI-lQkc-4" target="s5zvkutuZv6NkAI-lQkc-2" edge="1">
          <mxGeometry relative="1" as="geometry" />
        </mxCell>
        <mxCell id="PGD4OHQLuH6NylFqRZVx-45" style="edgeStyle=orthogonalEdgeStyle;rounded=0;orthogonalLoop=1;jettySize=auto;html=1;entryX=0;entryY=0.5;entryDx=0;entryDy=0;startArrow=classic;startFill=1;" edge="1" parent="1" source="s5zvkutuZv6NkAI-lQkc-4" target="s5zvkutuZv6NkAI-lQkc-34">
          <mxGeometry relative="1" as="geometry" />
        </mxCell>
        <mxCell id="s5zvkutuZv6NkAI-lQkc-4" value="Server" style="rounded=0;whiteSpace=wrap;html=1;align=left;verticalAlign=top;" parent="1" vertex="1">
          <mxGeometry x="320" y="80" width="630" height="410" as="geometry" />
        </mxCell>
        <mxCell id="s5zvkutuZv6NkAI-lQkc-5" value="&lt;div align=&quot;left&quot;&gt;Users Info&lt;/div&gt;" style="rounded=0;whiteSpace=wrap;html=1;align=left;verticalAlign=top;" parent="1" vertex="1">
          <mxGeometry x="330" y="110" width="180" height="370" as="geometry" />
        </mxCell>
        <mxCell id="s5zvkutuZv6NkAI-lQkc-6" value="Punchline (Health)" style="rounded=0;whiteSpace=wrap;html=1;" parent="1" vertex="1">
          <mxGeometry x="340" y="140" width="160" height="60" as="geometry" />
        </mxCell>
        <mxCell id="s5zvkutuZv6NkAI-lQkc-7" value="Statuses" style="rounded=0;whiteSpace=wrap;html=1;" parent="1" vertex="1">
          <mxGeometry x="340" y="210" width="160" height="60" as="geometry" />
        </mxCell>
        <mxCell id="s5zvkutuZv6NkAI-lQkc-8" value="&lt;div&gt;Match Information&lt;br&gt;&lt;/div&gt;" style="rounded=0;whiteSpace=wrap;html=1;align=left;verticalAlign=top;" parent="1" vertex="1">
          <mxGeometry x="530" y="110" width="410" height="150" as="geometry" />
        </mxCell>
        <mxCell id="s5zvkutuZv6NkAI-lQkc-9" value="Time" style="rounded=0;whiteSpace=wrap;html=1;" parent="1" vertex="1">
          <mxGeometry x="540" y="140" width="90" height="50" as="geometry" />
        </mxCell>
        <mxCell id="s5zvkutuZv6NkAI-lQkc-10" value="Damage Multiplier" style="rounded=0;whiteSpace=wrap;html=1;" parent="1" vertex="1">
          <mxGeometry x="640" y="140" width="90" height="50" as="geometry" />
        </mxCell>
        <mxCell id="s5zvkutuZv6NkAI-lQkc-11" value="Damage Multiplier" style="rounded=0;whiteSpace=wrap;html=1;" parent="1" vertex="1">
          <mxGeometry x="740" y="140" width="90" height="50" as="geometry" />
        </mxCell>
        <mxCell id="s5zvkutuZv6NkAI-lQkc-12" value="Damage Multiplier" style="rounded=0;whiteSpace=wrap;html=1;" parent="1" vertex="1">
          <mxGeometry x="840" y="140" width="90" height="50" as="geometry" />
        </mxCell>
        <mxCell id="s5zvkutuZv6NkAI-lQkc-13" value="Client IPs" style="rounded=0;whiteSpace=wrap;html=1;" parent="1" vertex="1">
          <mxGeometry x="340" y="280" width="160" height="50" as="geometry" />
        </mxCell>
        <mxCell id="s5zvkutuZv6NkAI-lQkc-14" value="Match ID" style="rounded=0;whiteSpace=wrap;html=1;" parent="1" vertex="1">
          <mxGeometry x="540" y="200" width="90" height="50" as="geometry" />
        </mxCell>
        <mxCell id="s5zvkutuZv6NkAI-lQkc-16" value="Possibly Skill Cool down " style="rounded=0;whiteSpace=wrap;html=1;" parent="1" vertex="1">
          <mxGeometry x="340" y="340" width="160" height="60" as="geometry" />
        </mxCell>
        <mxCell id="s5zvkutuZv6NkAI-lQkc-17" value="Frame data" style="rounded=0;whiteSpace=wrap;html=1;" parent="1" vertex="1">
          <mxGeometry x="340" y="410" width="160" height="60" as="geometry" />
        </mxCell>
        <mxCell id="s5zvkutuZv6NkAI-lQkc-20" value="&lt;div align=&quot;left&quot;&gt;User Info&lt;/div&gt;" style="rounded=0;whiteSpace=wrap;html=1;align=left;verticalAlign=top;" parent="1" vertex="1">
          <mxGeometry x="-390" y="110" width="200" height="370" as="geometry" />
        </mxCell>
        <mxCell id="s5zvkutuZv6NkAI-lQkc-22" value="Punchline (Health)" style="rounded=0;whiteSpace=wrap;html=1;" parent="1" vertex="1">
          <mxGeometry x="-375" y="140" width="165" height="60" as="geometry" />
        </mxCell>
        <mxCell id="s5zvkutuZv6NkAI-lQkc-23" value="Statuses" style="rounded=0;whiteSpace=wrap;html=1;" parent="1" vertex="1">
          <mxGeometry x="-375" y="208" width="165" height="60" as="geometry" />
        </mxCell>
        <mxCell id="s5zvkutuZv6NkAI-lQkc-25" value="Possibly Skill Cool down " style="rounded=0;whiteSpace=wrap;html=1;" parent="1" vertex="1">
          <mxGeometry x="-375" y="275" width="165" height="60" as="geometry" />
        </mxCell>
        <mxCell id="s5zvkutuZv6NkAI-lQkc-26" value="Frame data" style="rounded=0;whiteSpace=wrap;html=1;" parent="1" vertex="1">
          <mxGeometry x="-375" y="342" width="165" height="60" as="geometry" />
        </mxCell>
        <mxCell id="s5zvkutuZv6NkAI-lQkc-27" value="&lt;div&gt;Match Information&lt;br&gt;&lt;/div&gt;" style="rounded=0;whiteSpace=wrap;html=1;align=left;verticalAlign=top;" parent="1" vertex="1">
          <mxGeometry x="-180" y="110" width="410" height="90" as="geometry" />
        </mxCell>
        <mxCell id="s5zvkutuZv6NkAI-lQkc-28" value="Time" style="rounded=0;whiteSpace=wrap;html=1;" parent="1" vertex="1">
          <mxGeometry x="-170" y="140" width="90" height="50" as="geometry" />
        </mxCell>
        <mxCell id="s5zvkutuZv6NkAI-lQkc-29" value="Damage Multiplier" style="rounded=0;whiteSpace=wrap;html=1;" parent="1" vertex="1">
          <mxGeometry x="-70" y="140" width="90" height="50" as="geometry" />
        </mxCell>
        <mxCell id="s5zvkutuZv6NkAI-lQkc-30" value="Match ID" style="rounded=0;whiteSpace=wrap;html=1;" parent="1" vertex="1">
          <mxGeometry x="30" y="140" width="90" height="50" as="geometry" />
        </mxCell>
        <mxCell id="s5zvkutuZv6NkAI-lQkc-31" value="Server Info" style="rounded=0;whiteSpace=wrap;html=1;" parent="1" vertex="1">
          <mxGeometry x="130" y="140" width="90" height="50" as="geometry" />
        </mxCell>
        <mxCell id="s5zvkutuZv6NkAI-lQkc-32" value="Controller Input" style="rounded=0;whiteSpace=wrap;html=1;" parent="1" vertex="1">
          <mxGeometry x="-375" y="410" width="165" height="60" as="geometry" />
        </mxCell>
        <mxCell id="s5zvkutuZv6NkAI-lQkc-34" value="Enemy Client" style="rounded=0;whiteSpace=wrap;html=1;align=left;verticalAlign=top;" parent="1" vertex="1">
          <mxGeometry x="990" y="80" width="710" height="410" as="geometry" />
        </mxCell>
        <mxCell id="PGD4OHQLuH6NylFqRZVx-34" value="&lt;div align=&quot;left&quot;&gt;User Info&lt;/div&gt;" style="rounded=0;whiteSpace=wrap;html=1;align=left;verticalAlign=top;" vertex="1" parent="1">
          <mxGeometry x="1000" y="110" width="260" height="370" as="geometry" />
        </mxCell>
        <mxCell id="PGD4OHQLuH6NylFqRZVx-35" value="Punchline (Health)" style="rounded=0;whiteSpace=wrap;html=1;" vertex="1" parent="1">
          <mxGeometry x="1015" y="140" width="165" height="60" as="geometry" />
        </mxCell>
        <mxCell id="PGD4OHQLuH6NylFqRZVx-36" value="Statuses" style="rounded=0;whiteSpace=wrap;html=1;" vertex="1" parent="1">
          <mxGeometry x="1015" y="208" width="165" height="60" as="geometry" />
        </mxCell>
        <mxCell id="PGD4OHQLuH6NylFqRZVx-37" value="Possibly Skill Cool down " style="rounded=0;whiteSpace=wrap;html=1;" vertex="1" parent="1">
          <mxGeometry x="1015" y="275" width="165" height="60" as="geometry" />
        </mxCell>
        <mxCell id="PGD4OHQLuH6NylFqRZVx-38" value="Frame data" style="rounded=0;whiteSpace=wrap;html=1;" vertex="1" parent="1">
          <mxGeometry x="1015" y="342" width="165" height="60" as="geometry" />
        </mxCell>
        <mxCell id="PGD4OHQLuH6NylFqRZVx-39" value="&lt;div&gt;Match Information&lt;br&gt;&lt;/div&gt;" style="rounded=0;whiteSpace=wrap;html=1;align=left;verticalAlign=top;" vertex="1" parent="1">
          <mxGeometry x="1280" y="110" width="410" height="90" as="geometry" />
        </mxCell>
        <mxCell id="PGD4OHQLuH6NylFqRZVx-40" value="Time" style="rounded=0;whiteSpace=wrap;html=1;" vertex="1" parent="1">
          <mxGeometry x="1290" y="140" width="90" height="50" as="geometry" />
        </mxCell>
        <mxCell id="PGD4OHQLuH6NylFqRZVx-41" value="Damage Multiplier" style="rounded=0;whiteSpace=wrap;html=1;" vertex="1" parent="1">
          <mxGeometry x="1390" y="140" width="90" height="50" as="geometry" />
        </mxCell>
        <mxCell id="PGD4OHQLuH6NylFqRZVx-42" value="Match ID" style="rounded=0;whiteSpace=wrap;html=1;" vertex="1" parent="1">
          <mxGeometry x="1490" y="140" width="90" height="50" as="geometry" />
        </mxCell>
        <mxCell id="PGD4OHQLuH6NylFqRZVx-43" value="Server Info" style="rounded=0;whiteSpace=wrap;html=1;" vertex="1" parent="1">
          <mxGeometry x="1590" y="140" width="90" height="50" as="geometry" />
        </mxCell>
        <mxCell id="PGD4OHQLuH6NylFqRZVx-44" value="Controller Input" style="rounded=0;whiteSpace=wrap;html=1;" vertex="1" parent="1">
          <mxGeometry x="1015" y="410" width="165" height="60" as="geometry" />
        </mxCell>
      </root>
    </mxGraphModel>
  </diagram>
</mxfile>
